<svg width="16" height="16" viewBox="0 0 16 16" fill="none" xmlns="http://www.w3.org/2000/svg">
<path d="M4.00567 0C3.80485 0 3.64204 0.1628 3.64204 0.363636V2.36364C3.64204 2.56445 3.80485 2.72727 4.00567 2.72727C4.20651 2.72727 4.36931 2.56445 4.36931 2.36364V0.363636C4.36931 0.1628 4.20651 0 4.00567 0ZM11.2784 0C11.0776 0 10.9148 0.1628 10.9148 0.363636V2.36364C10.9148 2.56445 11.0776 2.72727 11.2784 2.72727C11.4792 2.72727 11.642 2.56445 11.642 2.36364V0.363636C11.642 0.1628 11.4792 0 11.2784 0ZM1.46022 1.45455C0.651946 1.45455 0 2.10643 0 2.91476V6.18182H15.2727V2.91476C15.2727 2.10643 14.6208 1.45455 13.8125 1.45455H12.7273H12.0057V2.74431C12.4394 2.99703 12.7329 3.46524 12.7329 4C12.7329 4.79902 12.0775 5.45455 11.2784 5.45455C10.4794 5.45455 9.82385 4.79902 9.82385 4C9.82385 3.46524 10.1174 2.99703 10.5511 2.74431V1.45455H4.72727V2.73864C5.16475 2.99038 5.46022 3.46245 5.46022 4C5.46022 4.79902 4.80476 5.45455 4.00567 5.45455C3.20671 5.45455 2.55113 4.79902 2.55113 4C2.55113 3.46696 2.84127 2.99762 3.27273 2.74431V1.45455H1.46022ZM4.00567 3.27273C3.59978 3.27273 3.2784 3.59402 3.2784 4C3.2784 4.40596 3.59978 4.72727 4.00567 4.72727C4.41164 4.72727 4.73294 4.40596 4.73294 4C4.73294 3.59402 4.41164 3.27273 4.00567 3.27273ZM11.2784 3.27273C10.8725 3.27273 10.5511 3.59402 10.5511 4C10.5511 4.40596 10.8725 4.72727 11.2784 4.72727C11.6844 4.72727 12.0057 4.40596 12.0057 4C12.0057 3.59402 11.6844 3.27273 11.2784 3.27273ZM0 6.90909V14.5398C0 15.3481 0.651927 16 1.46022 16H13.8125C14.6208 16 15.2727 15.3481 15.2727 14.5398V6.90909H0Z" fill="#8D99A5"/>
</svg>